#!OML:ASF F:\VICON\USERDATA\INSTALL\rory3\rory3.ASF
:FULLY-SPECIFIED
:DEGREES
3099
root 4.31702 17.8635 -2.06248 -180.953 176.98 -181.926
lowerback 6.08835 0.789362 -1.48409
upperback -1.48327 0.883366 -1.08612
thorax -4.9603 0.464512 -0.383516
lowerneck -29.9693 -0.205718 -9.39837
upperneck 26.2137 4.25129 -0.214712
head 13.7418 0.80582 2.2974
rclavicle 9.77772e-015 -2.54444e-014
rhumerus 24.9107 -46.1972 -6.70376
rradius 52.7822
rwrist 7.62176
rhand -44.7064 -5.91113
rfingers 7.12502
rthumb -17.5011 -35.1434
lclavicle 9.77772e-015 -2.54444e-014
lhumerus 34.2243 46.5131 7.84144
lradius 51.4813
lwrist 13.338
lhand -18.3542 32.6671
lfingers 7.12502
lthumb 7.92845 1142.5
rfemur -11.4021 -2.09128 13.3964
rtibia 39.6326
rfoot -18.6716 -13.6186
rtoes 5.57328
lfemur -8.32061 -1.848 -19.3499
ltibia 25.3719
lfoot -13.1337 -5.96219
ltoes -7.28037
3100
root 4.31967 17.869 -2.08915 -180.933 177.126 -181.945
lowerback 5.99519 0.829754 -1.42882
upperback -1.52266 0.942491 -1.10015
thorax -4.94765 0.492014 -0.434096
lowerneck -29.936 -0.221937 -9.37804
upperneck 26.3327 4.22944 -0.23614
head 13.7887 0.789421 2.28339
rclavicle -1.40392e-014 7.15625e-015
rhumerus 25.627 -46.0327 -6.61038
rradius 54.5328
rwrist 8.02512
rhand -44.9451 -5.90762
rfingers 7.12502
rthumb -17.7308 -35.1192
lclavicle -1.40392e-014 7.15625e-015
lhumerus 34.6625 46.358 7.39524
lradius 53.1988
lwrist 12.7401
lhand -19.4133 32.634
lfingers 7.12502
lthumb 6.90617 1142.5
rfemur -11.1255 -2.35675 13.4813
rtibia 40.1477
rfoot -18.4427 -13.7924
rtoes 5.76169
lfemur -8.37369 -1.80792 -19.344
ltibia 25.2824
lfoot -13.0268 -5.82171
ltoes -7.51689
3101
root 4.32209 17.8739 -2.11424 -180.915 177.295 -182.001
lowerback 5.93157 0.868976 -1.32548
upperback -1.55502 1.00392 -1.09856
thorax -4.94367 0.519452 -0.495986
lowerneck -30.1195 -0.224543 -9.48192
upperneck 26.5953 4.24869 -0.0384282
head 13.9258 0.801437 2.39154
rclavicle 2.15806e-014 -3.18055e-015
rhumerus 26.3999 -45.9251 -6.54919
rradius 56.2907
rwrist 8.56946
rhand -45.2256 -5.84399
rfingers 7.12502
rthumb -18.0007 -35.031
lclavicle 2.15806e-014 -3.18055e-015
lhumerus 34.9904 46.2058 6.89213
lradius 54.9475
lwrist 11.9139
lhand -20.2074 32.8514
lfingers 7.12502
lthumb 6.13956 1142.74
rfemur -10.8095 -2.62314 13.6007
rtibia 40.639
rfoot -18.4918 -13.6108
rtoes 6.52998
lfemur -8.4119 -1.75176 -19.2895
ltibia 25.1663
lfoot -12.8643 -5.70877
ltoes -7.33698
3102
root 4.32428 17.8777 -2.13813 -180.884 177.514 -181.992
lowerback 5.84567 0.926282 -1.29095
upperback -1.59433 1.08376 -1.11058
thorax -4.9352 0.557853 -0.534831
lowerneck -30.1918 -0.213741 -9.50292
upperneck 26.6703 4.25795 0.0505684
head 13.9673 0.812235 2.4354
rclavicle -1.00262e-014 -7.95139e-016
rhumerus 27.0445 -45.7566 -6.35064
rradius 58.1472
rwrist 8.89028
rhand -45.4153 -5.83257
rfingers 7.12502
rthumb -18.1832 -35.0027
lclavicle -1.00262e-014 -7.95139e-016
lhumerus 35.4134 46.1464 6.58108
lradius 56.7335
lwrist 10.8504
lhand -21.1857 33.2168
lfingers 7.12502
lthumb 5.19508 1143.13
rfemur -10.5088 -2.85954 13.6454
rtibia 41.0995
rfoot -18.572 -13.6047
rtoes 6.72222
lfemur -8.44482 -1.63104 -19.3062
ltibia 25.0383
lfoot -12.7037 -5.64801
ltoes -7.17006
3103
root 4.32452 17.8819 -2.16273 -180.924 177.689 -181.903
lowerback 5.82894 1.0003 -1.34798
upperback -1.64232 1.1758 -1.15143
thorax -4.97632 0.604667 -0.55486
lowerneck -30.0196 -0.235982 -9.44562
upperneck 26.6364 4.19362 -0.00483219
head 13.926 0.786001 2.38827
rclavicle -1.35919e-014 2.38542e-015
rhumerus 27.4713 -45.5492 -5.97701
rradius 60.0752
rwrist 9.05992
rhand -45.4534 -5.73338
rfingers 7.12502
rthumb -18.2199 -34.9001
lclavicle -1.35919e-014 2.38542e-015
lhumerus 35.9535 46.0529 6.39891
lradius 58.5404
lwrist 9.71379
lhand -21.6619 32.7807
lfingers 7.12502
lthumb 4.73528 1142.71
rfemur -10.1195 -3.14586 13.6062
rtibia 41.5184
rfoot -18.5945 -13.7156
rtoes 6.24862
lfemur -8.40442 -1.55288 -19.4101
ltibia 24.9247
lfoot -12.5189 -5.57097
ltoes -6.93562
3104
root 4.32347 17.8863 -2.1885 -180.959 177.834 -181.899
lowerback 5.77876 1.05416 -1.31196
upperback -1.67406 1.24975 -1.17928
thorax -4.97966 0.639825 -0.610787
lowerneck -29.8207 -0.250902 -9.36752
upperneck 26.5531 4.12704 -0.0705478
head 13.8589 0.762224 2.33195
rclavicle -1.69712e-014 -1.59028e-015
rhumerus 28.0903 -45.4989 -5.89781
rradius 62.0211
rwrist 9.35805
rhand -45.3618 -5.0593
rfingers 7.12502
rthumb -18.1318 -34.2342
lclavicle -1.69712e-014 -1.59028e-015
lhumerus 36.4134 45.9147 6.10957
lradius 60.3552
lwrist 8.5174
lhand -22.5831 31.6683
lfingers 7.12502
lthumb 3.84567 1141.61
rfemur -9.72918 -3.43919 13.658
rtibia 41.9067
rfoot -18.6455 -13.7407
rtoes 5.62992
lfemur -8.37797 -1.54073 -19.4195
ltibia 24.8223
lfoot -12.3434 -5.44731
ltoes -6.95297
3105
root 4.32311 17.8926 -2.21485 -180.903 178.005 -182.021
lowerback 5.65834 1.06227 -1.12567
upperback -1.74074 1.27705 -1.16477
thorax -4.97689 0.648048 -0.701333
lowerneck -29.7053 -0.226443 -9.37559
upperneck 26.5284 4.12659 -0.00284682
head 13.8225 0.774362 2.35856
rclavicle -9.46712e-015 1.11319e-014
rhumerus 28.9228 -45.3995 -6.06061
rradius 63.9383
rwrist 9.73952
rhand -45.7019 -4.19109
rfingers 7.12502
rthumb -18.459 -33.3353
lclavicle -9.46712e-015 1.11319e-014
lhumerus 36.7147 45.8595 5.74622
lradius 62.1718
lwrist 7.17562
lhand -23.4503 31.8138
lfingers 7.12502
lthumb 3.00821 1141.77
rfemur -9.42701 -3.82696 13.8491
rtibia 42.285
rfoot -18.6032 -13.8544
rtoes 5.41173
lfemur -8.45123 -1.65885 -19.2941
ltibia 24.7088
lfoot -12.1765 -5.18256
ltoes -6.99603
3106
root 4.32256 17.8977 -2.24106 -180.875 178.231 -182.088
lowerback 5.59052 1.08395 -1.01835
upperback -1.78086 1.31633 -1.13351
thorax -4.9783 0.664779 -0.732108
lowerneck -29.7534 -0.221936 -9.44316
upperneck 26.6073 4.13516 0.117072
head 13.8591 0.78479 2.42182
rclavicle -1.89839e-014 7.95139e-015
rhumerus 29.621 -45.2361 -6.02458
rradius 65.9404
rwrist 10.0492
rhand -46.2236 -4.3181
rfingers 7.12502
rthumb -18.9607 -33.4139
lclavicle -1.89839e-014 7.95139e-015
lhumerus 37.0457 45.9144 5.56383
lradius 64.0244
lwrist 5.80134
lhand -24.4746 31.574
lfingers 7.12502
lthumb 2.01896 1141.54
rfemur -9.09043 -4.16506 13.9629
rtibia 42.6654
rfoot -18.6397 -13.9741
rtoes 6.06358
lfemur -8.49715 -1.65154 -19.2286
ltibia 24.5933
lfoot -12.0491 -4.9441
ltoes -7.47522
3107
root 4.32096 17.9043 -2.26493 -180.86 178.449 -182.067
lowerback 5.4612 1.14786 -1.01889
upperback -1.75737 1.40457 -1.12785
thorax -4.88013 0.708628 -0.731096
lowerneck -29.8707 -0.261965 -9.49831
upperneck 26.7093 4.09038 0.219493
head 13.9234 0.768855 2.4672
rclavicle -1.41386e-014 1.90833e-014
rhumerus 30.1114 -45.2174 -5.82009
rradius 67.9926
rwrist 10.4226
rhand -46.4359 -4.56722
rfingers 7.12502
rthumb -19.1649 -33.6429
lclavicle -1.41386e-014 1.90833e-014
lhumerus 37.5054 46.0134 5.50827
lradius 65.8706
lwrist 4.66899
lhand -25.2349 32.0245
lfingers 7.12502
lthumb 1.28474 1142
rfemur -8.71843 -4.48799 13.974
rtibia 43.0379
rfoot -18.5774 -14.1634
rtoes 6.81106
lfemur -8.52883 -1.59096 -19.2458
ltibia 24.5
lfoot -11.9324 -4.8065
ltoes -7.37663
3108
root 4.31911 17.91 -2.29014 -180.838 178.661 -182.042
lowerback 5.37612 1.21548 -1.02783
upperback -1.79424 1.49561 -1.11973
thorax -4.87038 0.754218 -0.724956
lowerneck -29.8244 -0.294572 -9.51364
upperneck 26.7866 4.04163 0.243766
head 13.9494 0.746589 2.47118
rclavicle -5.91384e-015 -1.35174e-014
rhumerus 30.6037 -45.1028 -5.64695
rradius 70.0256
rwrist 11.0556
rhand -46.4584 -4.57443
rfingers 7.12502
rthumb -19.1866 -33.648
lclavicle -5.91384e-015 -1.35174e-014
lhumerus 37.9309 46.0114 5.42961
lradius 67.6771
lwrist 3.37042
lhand -26.0965 31.6662
lfingers 7.12502
lthumb 0.452527 1141.65
rfemur -8.34104 -4.87683 13.9866
rtibia 43.387
rfoot -18.6318 -14.1688
rtoes 6.84031
lfemur -8.56718 -1.45984 -19.2648
ltibia 24.3967
lfoot -11.8073 -4.7267
ltoes -7.35637
